<svg width="86" height="137" viewBox="0 0 86 137" fill="none" xmlns="http://www.w3.org/2000/svg">
<path d="M61.9622 19.168C61.9622 32.763 45.5332 46.374 43.0282 52.626V52.627C40.6992 46.374 25.3232 33.689 25.3232 19.168C25.3232 4.64695 34.4392 -4.57764e-05 42.9642 -4.57764e-05C51.4892 -4.57764e-05 61.9622 4.64695 61.9622 19.168Z" fill="white"/>
<path d="M14.6041 39.6847C26.1421 39.6507 25.4571 48.4627 43.0051 52.6237C23.0111 58.0677 26.6591 65.7277 14.3361 65.7647C2.0131 65.8007 0.0181044 57.5867 0.00010443 52.0247C-0.0178956 46.4627 2.28111 39.7207 14.6041 39.6847Z" fill="white"/>
<path d="M71.34 65.678C59.802 65.665 60.527 56.856 42.998 52.624C63.016 47.261 59.403 39.586 71.726 39.599C84.049 39.613 86.006 47.835 86 53.397C85.993 58.959 83.663 65.692 71.34 65.678Z" fill="white"/>
<path d="M63.1011 81.5715C60.5571 95.3115 47.3261 110.578 42.7001 136.53V136.531C37.9121 110.323 24.7661 95.4805 22.5611 81.2325C21.4471 74.0345 23.0831 70.2565 25.4021 67.9595C27.3491 66.0295 29.7441 65.0855 31.7201 64.6085C41.5591 62.2345 42.7331 73.0805 42.8231 73.0805H42.8371C42.9321 73.0735 44.4421 62.2345 54.2811 64.6085C56.1581 65.0625 58.7111 66.0815 60.7261 68.3405C62.8771 70.7515 64.3921 74.6005 63.1011 81.5715Z" fill="white"/>
</svg>
